<svg width="20" height="20" viewBox="0 0 20 20" fill="none" xmlns="http://www.w3.org/2000/svg">
<g clip-path="url(#clip0_35_805)">
<path d="M6.47909 0.0312619C5.94855 0.0781369 5.63986 0.128137 5.21703 0.234387C4.22186 0.484387 3.31189 0.942199 2.48391 1.61095C2.27652 1.77814 1.82957 2.21251 1.65755 2.41407C0.745973 3.48126 0.204172 4.70782 0.05787 6.04689C-0.00161554 6.57814 -0.00804641 6.7672 0.0225002 7.12501C0.0385774 7.30939 0.0610854 7.53751 0.0739472 7.63283C0.242757 8.91095 0.784558 10.1063 1.64629 11.1094C1.81189 11.3031 2.19935 11.6828 2.41157 11.8625C3.36012 12.6641 4.49195 13.1938 5.72829 13.4141C6.38745 13.5313 7.24437 13.5485 7.918 13.4594C8.93568 13.3235 9.98392 12.936 10.8135 12.3906C10.8778 12.35 10.9453 12.3063 10.9646 12.2969C10.9984 12.2797 11.217 12.4875 14.9019 16.0672C18.0064 19.0828 18.8183 19.8641 18.8826 19.8953C19.008 19.9547 19.1913 20.0031 19.2669 19.9953C19.4582 19.975 19.6206 19.9031 19.7556 19.775C19.8907 19.6485 19.9743 19.4781 19.9952 19.2875C20.0032 19.2156 19.955 19.036 19.8923 18.9141C19.8601 18.8516 19.0643 18.0703 15.9871 15.0781C13.8617 13.0109 12.1222 11.3156 12.1222 11.3094C12.1222 11.3031 12.172 11.2438 12.2315 11.175C13.9614 9.22345 14.4019 6.48751 13.3649 4.12657C13.1961 3.74376 13.0145 3.4172 12.7556 3.03907C11.9662 1.88282 10.8328 0.990637 9.50964 0.485949C8.82475 0.223449 8.2733 0.103137 7.43568 0.0312619C7.01607 -0.00467559 6.89388 -0.00467559 6.47909 0.0312619ZM7.66076 1.47501C8.709 1.61876 9.60289 1.99064 10.418 2.62345C10.6077 2.77189 10.9598 3.10314 11.1254 3.28907C12.3424 4.6672 12.754 6.50314 12.2411 8.25001C12.0595 8.8672 11.7026 9.54533 11.2958 10.0469C10.1752 11.4281 8.4807 12.1813 6.6897 12.0922C4.79903 11.9985 3.11414 10.9797 2.17202 9.36408C1.86334 8.83439 1.63022 8.1672 1.53697 7.54689C1.45337 6.99064 1.46462 6.35157 1.56752 5.8047C1.95498 3.75626 3.56269 2.09532 5.64308 1.59376C5.92443 1.52501 6.20256 1.48126 6.56752 1.44689C6.71864 1.43282 7.49195 1.45314 7.66076 1.47501Z" fill="black"/>
</g>
<defs>
<clipPath id="clip0_35_805">
<rect width="20" height="20" fill="white"/>
</clipPath>
</defs>
</svg>
